#!OML:ASF F:\VICON\USERDATA\INSTALL\rory3\rory3.ASF
:FULLY-SPECIFIED
:DEGREES
562
root 4.97161 16.5335 2.19873 6.16586 -12.8509 -6.5273
lowerback 20.8879 -0.809081 4.15788
upperback 4.26998 -0.0817459 1.47089
thorax -7.02408 -0.126096 -0.756374
lowerneck -14.7387 -0.524448 -1.80116
upperneck 37.2062 0.357909 -1.99405
head 15.5859 -0.450541 -0.487964
rclavicle -1.95803e-014 9.54166e-015
rhumerus -38.0969 0.81382 -6.74013
rradius 26.3049
rwrist 14.477
rhand -23.9029 -50.3232
rfingers 7.12502
rthumb 2.57109 -80.2875
lclavicle -1.95803e-014 9.54166e-015
lhumerus -34.5083 -1.83831 1.00834
lradius 23.1237
lwrist 9.81152
lhand -22.841 -27.5613
lfingers 7.12502
lthumb 3.59669 2.38812
rfemur -104.596 0.460331 27.1185
rtibia 101.236
rfoot 49.3817 6.18159
rtoes -4.03631
lfemur -30.4874 2.78811 -23.9042
ltibia 49.6883
lfoot -22.3512 9.14305
ltoes 15.1641
563
root 4.97233 16.5372 2.19691 6.14872 -12.8194 -6.6174
lowerback 20.8782 -0.829207 4.26389
upperback 4.28799 -0.0857914 1.48021
thorax -6.99926 -0.129447 -0.805664
lowerneck -14.6803 -0.539839 -1.82403
upperneck 37.1554 0.346978 -2.01233
head 15.5468 -0.459927 -0.492479
rclavicle -2.06736e-014 2.32578e-014
rhumerus -38.1461 1.10689 -6.87916
rradius 26.3366
rwrist 14.2607
rhand -24.1838 -50.3505
rfingers 7.12502
rthumb 2.29985 -80.3179
lclavicle -2.06736e-014 2.32578e-014
lhumerus -34.4405 -1.81097 0.991871
lradius 23.19
lwrist 9.88402
lhand -22.8723 -26.6843
lfingers 7.12502
lthumb 3.56643 3.26558
rfemur -104.492 0.444033 27.2383
rtibia 101.148
rfoot 49.3085 6.56266
rtoes -4.48539
lfemur -30.4322 2.90273 -23.8175
ltibia 49.6409
lfoot -22.347 9.04646
ltoes 15.8963
564
root 4.97167 16.5393 2.19474 6.14876 -12.7724 -6.59883
lowerback 20.9169 -0.83471 4.22803
upperback 4.25421 -0.0965014 1.48346
thorax -7.05715 -0.13507 -0.778424
lowerneck -14.7083 -0.522753 -1.76488
upperneck 37.2351 0.394647 -2.11389
head 15.5941 -0.446923 -0.539587
rclavicle -1.64991e-014 5.36719e-015
rhumerus -38.2505 1.55685 -7.05305
rradius 26.5169
rwrist 13.9089
rhand -24.2399 -50.4601
rfingers 7.12502
rthumb 2.2457 -80.428
lclavicle -1.64991e-014 5.36719e-015
lhumerus -34.3542 -1.78591 0.974619
lradius 23.1659
lwrist 9.8776
lhand -22.6267 -26.3708
lfingers 7.12502
lthumb 3.80362 3.57496
rfemur -104.481 0.398477 27.2508
rtibia 101.087
rfoot 49.3275 6.3502
rtoes -4.49015
lfemur -30.4402 2.96734 -23.8389
ltibia 49.6166
lfoot -22.3808 8.94421
ltoes 16.0391
565
root 4.97092 16.5388 2.1916 6.14578 -12.6806 -6.57075
lowerback 20.9787 -0.864389 4.19666
upperback 4.21408 -0.135985 1.48744
thorax -7.13542 -0.154915 -0.745061
lowerneck -14.7903 -0.482144 -1.72231
upperneck 37.352 0.464864 -2.16225
head 15.6729 -0.420325 -0.558138
rclavicle -5.56597e-015 -1.88845e-014
rhumerus -38.304 1.74289 -7.09933
rradius 26.5869
rwrist 13.8177
rhand -24.4588 -50.3673
rfingers 7.12502
rthumb 2.03426 -80.3373
lclavicle -5.56597e-015 -1.88845e-014
lhumerus -34.3453 -1.86708 0.993074
lradius 23.0922
lwrist 9.85126
lhand -22.9418 -27.7883
lfingers 7.12502
lthumb 3.49933 2.1627
rfemur -104.509 0.309674 27.2594
rtibia 101.065
rfoot 49.1951 6.32304
rtoes -5.19524
lfemur -30.4752 3.01397 -23.8646
ltibia 49.6258
lfoot -22.4253 8.81666
ltoes 15.9319
566
root 4.97042 16.5378 2.18947 6.16953 -12.6121 -6.62271
lowerback 20.9818 -0.890307 4.25134
upperback 4.18855 -0.154973 1.50488
thorax -7.16571 -0.165635 -0.751963
lowerneck -14.9059 -0.507217 -1.87867
upperneck 37.4363 0.394467 -1.93201
head 15.7416 -0.441529 -0.44561
rclavicle 1.65985e-014 3.57812e-015
rhumerus -38.3512 1.76313 -7.07417
rradius 26.6743
rwrist 13.6986
rhand -24.5906 -50.1759
rfingers 7.12502
rthumb 1.90695 -80.1472
lclavicle 1.65985e-014 3.57812e-015
lhumerus -34.3571 -2.0699 1.07906
lradius 23.0323
lwrist 9.90759
lhand -23.5115 -29.205
lfingers 7.12502
lthumb 2.94917 0.754365
rfemur -104.499 0.265352 27.334
rtibia 101.029
rfoot 49.0397 6.27352
rtoes -6.00246
lfemur -30.526 3.05997 -23.8052
ltibia 49.6519
lfoot -22.4092 8.72943
ltoes 15.6761
567
root 4.96999 16.537 2.18922 6.15585 -12.6382 -6.67378
lowerback 21.0099 -0.873002 4.27169
upperback 4.15901 -0.123596 1.52436
thorax -7.21141 -0.151865 -0.75034
lowerneck -14.884 -0.572162 -2.07021
upperneck 37.4533 0.273386 -1.71153
head 15.7439 -0.488708 -0.337948
rclavicle 2.55438e-014 -4.96962e-015
rhumerus -38.4723 1.99544 -7.12315
rradius 26.9789
rwrist 13.2735
rhand -24.3037 -50.3763
rfingers 7.12502
rthumb 2.18402 -80.3449
lclavicle 2.55438e-014 -4.96962e-015
lhumerus -34.3507 -2.26833 1.179
lradius 23.0385
lwrist 9.93476
lhand -23.7152 -29.6836
lfingers 7.12502
lthumb 2.75245 0.278337
rfemur -104.411 0.307811 27.3967
rtibia 100.977
rfoot 49.1465 5.77646
rtoes -5.36164
lfemur -30.5223 3.12882 -23.7462
ltibia 49.6836
lfoot -22.3907 8.69527
ltoes 15.9211
